:FULLY-SPECIFIED
:FORCE-ALL-JOINTS-BE-3DOF
:DEGREES
679
root 5.48196 17.5718 1.55501 -29.2197 -29.3361 48.1507
lfemur -19.6582 14.3861 -19.2429
ltibia 50.0439 0 0
lfoot -23.0016 9.43367 0
ltoes 8.48725 0 0
rfemur -50.8695 -20.0808 25.3742
rtibia 78.1103 0 0
rfoot -6.82224 -15.545 0
rtoes 14.7649 0 0
lowerback 1.38753 -4.29737 -4.09062
upperback -1.54019 -5.81192 -0.493223
thorax -1.89956 -2.86674 1.76064
lowerneck -9.2688 -5.75975 -1.04432
upperneck 0.374993 -7.77061 4.78565
head 1.96152 -3.76714 1.34323
lclavicle 1.47451e-014 2.17026e-014 0
lhumerus -22.6764 -58.0526 87.2063
lradius 68.4775 0 0
lwrist 24.738 0 0
lhand -10.1354 0.782295 0
lfingers 7.12502 0 0
lthumb 15.844 29.9993 0
rclavicle 1.47451e-014 2.17026e-014 0
rhumerus -40.4159 -9.42732 -52.3587
rradius 70.4343 0 0
rwrist -14.3361 0 0
rhand -27.7919 -43.8065 0
rfingers 7.12502 0 0
rthumb -1.18489 -793.782 0
680
root 5.48221 17.6817 1.72838 -32.3137 -30.9437 51.1754
lfemur -20.0443 13.584 -18.4717
ltibia 50.4628 0 0
lfoot -22.1561 8.90935 0
ltoes 9.08021 0 0
rfemur -50.3963 -19.5671 24.6161
rtibia 78.6353 0 0
rfoot -6.0393 -15.6872 0
rtoes 15.5473 0 0
lowerback 1.51556 -4.19337 -4.0263
upperback -1.53418 -5.67723 -0.523071
thorax -1.97833 -2.79979 1.697
lowerneck -9.20252 -5.77898 -1.08289
upperneck 0.352528 -7.79251 4.78882
head 1.94511 -3.77968 1.3519
lclavicle 1.46945e-014 2.19833e-014 0
lhumerus -22.0957 -57.0023 85.2456
lradius 67.8156 0 0
lwrist 24.6769 0 0
lhand -10.471 0.667396 0
lfingers 7.12502 0 0
lthumb 15.5205 29.9044 0
rclavicle 1.46945e-014 2.19833e-014 0
rhumerus -39.5948 -9.21667 -51.6697
rradius 71.2349 0 0
rwrist -14.2121 0 0
rhand -27.7575 -43.5317 0
rfingers 7.12502 0 0
rthumb -1.15169 -793.507 0
681
root 5.48246 17.7916 1.90174 -35.4077 -32.5514 54.2001
lfemur -20.4304 12.7819 -17.7005
ltibia 50.8817 0 0
lfoot -21.3107 8.38502 0
ltoes 9.67317 0 0
rfemur -49.9231 -19.0534 23.8579
rtibia 79.1604 0 0
rfoot -5.25637 -15.8294 0
rtoes 16.3297 0 0
lowerback 1.64359 -4.08937 -3.96197
upperback -1.52817 -5.54254 -0.552918
thorax -2.05711 -2.73283 1.63335
lowerneck -9.13623 -5.7982 -1.12147
upperneck 0.330062 -7.81442 4.79199
head 1.9287 -3.79221 1.36056
lclavicle 1.46438e-014 2.22639e-014 0
lhumerus -21.515 -55.952 83.285
lradius 67.1538 0 0
lwrist 24.6158 0 0
lhand -10.8067 0.552497 0
lfingers 7.12502 0 0
lthumb 15.197 29.8096 0
rclavicle 1.46438e-014 2.22639e-014 0
rhumerus -38.7737 -9.00601 -50.9807
rradius 72.0355 0 0
rwrist -14.088 0 0
rhand -27.7232 -43.257 0
rfingers 7.12502 0 0
rthumb -1.1185 -793.232 0
682
root 5.48271 17.9016 2.0751 -38.5018 -34.159 57.2248
lfemur -20.8164 11.9798 -16.9293
ltibia 51.3006 0 0
lfoot -20.4652 7.86069 0
ltoes 10.2661 0 0
rfemur -49.4499 -18.5396 23.0998
rtibia 79.6855 0 0
rfoot -4.47343 -15.9716 0
rtoes 17.1121 0 0
lowerback 1.77162 -3.98538 -3.89765
upperback -1.52216 -5.40786 -0.582766
thorax -2.13589 -2.66588 1.56971
lowerneck -9.06994 -5.81742 -1.16004
upperneck 0.307596 -7.83633 4.79516
head 1.91228 -3.80475 1.36923
lclavicle 1.45931e-014 2.25445e-014 0
lhumerus -20.9343 -54.9016 81.3244
lradius 66.492 0 0
lwrist 24.5547 0 0
lhand -11.1423 0.437598 0
lfingers 7.12502 0 0
lthumb 14.8735 29.7147 0
rclavicle 1.45931e-014 2.25445e-014 0
rhumerus -37.9525 -8.79536 -50.2918
rradius 72.8361 0 0
rwrist -13.9639 0 0
rhand -27.6888 -42.9822 0
rfingers 7.12502 0 0
rthumb -1.08531 -792.958 0
